<svg width="16" height="14" viewBox="0 0 16 14" fill="none" xmlns="http://www.w3.org/2000/svg">
<path d="M0.727273 4.81817V1.90907C0.727273 1.50907 0.869697 1.16665 1.15455 0.881802C1.43939 0.596953 1.78182 0.454529 2.18182 0.454529H13.8182C14.2182 0.454529 14.5606 0.596953 14.8455 0.881802C15.1303 1.16665 15.2727 1.50907 15.2727 1.90907V4.81817H13.8182V1.90907H2.18182V4.81817H0.727273ZM2.18182 11.3636C1.78182 11.3636 1.43939 11.2212 1.15455 10.9363C0.869697 10.6515 0.727273 10.3091 0.727273 9.90907V6.27271H2.18182V9.90907H13.8182V6.27271H15.2727V9.90907C15.2727 10.3091 15.1303 10.6515 14.8455 10.9363C14.5606 11.2212 14.2182 11.3636 13.8182 11.3636H2.18182ZM0 13.5454V12.0909H16V13.5454H0ZM0.727273 6.27271V4.81817H5.09091C5.22424 4.81817 5.35151 4.85453 5.47273 4.92726C5.59394 4.99998 5.68485 5.09695 5.74545 5.21817L6.6 6.90907L8.83636 2.99998C8.89697 2.89089 8.98182 2.80301 9.09091 2.73635C9.2 2.66968 9.32121 2.63635 9.45455 2.63635C9.58788 2.63635 9.71515 2.66968 9.83636 2.73635C9.95758 2.80301 10.0485 2.90301 10.1091 3.03635L11 4.81817H15.2727V6.27271H10.5455C10.4121 6.27271 10.2848 6.23938 10.1636 6.17271C10.0424 6.10604 9.95151 6.00604 9.89091 5.87271L9.41818 4.90907L7.18182 8.81816C7.12121 8.93938 7.0303 9.03029 6.90909 9.09089C6.78788 9.1515 6.66061 9.1818 6.52727 9.1818C6.39394 9.1818 6.2697 9.14544 6.15455 9.07271C6.03939 8.99998 5.95151 8.90301 5.89091 8.7818L4.63636 6.27271H0.727273Z" fill="#E8EAED"/>
</svg>
