<svg width="16" height="16" viewBox="0 0 16 16" fill="none" xmlns="http://www.w3.org/2000/svg">
<path d="M7.57073 12.4878C6.32195 12.4228 5.26829 11.9415 4.40976 11.0439C3.55122 10.1463 3.12195 9.06667 3.12195 7.80488C3.12195 6.50407 3.57724 5.39837 4.4878 4.4878C5.39837 3.57724 6.50407 3.12195 7.80488 3.12195C9.06667 3.12195 10.1463 3.55122 11.0439 4.40976C11.9415 5.26829 12.4228 6.32195 12.4878 7.57073L10.8488 7.08293C10.6797 6.38049 10.3154 5.80488 9.7561 5.3561C9.19675 4.90732 8.54634 4.68293 7.80488 4.68293C6.94634 4.68293 6.21138 4.98862 5.6 5.6C4.98862 6.21138 4.68293 6.94634 4.68293 7.80488C4.68293 8.54634 4.90732 9.19675 5.3561 9.7561C5.80488 10.3154 6.38049 10.6797 7.08293 10.8488L7.57073 12.4878ZM8.50732 15.5707C8.39024 15.5967 8.27317 15.6098 8.1561 15.6098H7.80488C6.7252 15.6098 5.71057 15.4049 4.76098 14.9951C3.81138 14.5854 2.98537 14.0293 2.28293 13.3268C1.58049 12.6244 1.02439 11.7984 0.614634 10.8488C0.204878 9.89919 0 8.88455 0 7.80488C0 6.7252 0.204878 5.71057 0.614634 4.76098C1.02439 3.81138 1.58049 2.98537 2.28293 2.28293C2.98537 1.58049 3.81138 1.02439 4.76098 0.614634C5.71057 0.204878 6.7252 0 7.80488 0C8.88455 0 9.89919 0.204878 10.8488 0.614634C11.7984 1.02439 12.6244 1.58049 13.3268 2.28293C14.0293 2.98537 14.5854 3.81138 14.9951 4.76098C15.4049 5.71057 15.6098 6.7252 15.6098 7.80488V8.1561C15.6098 8.27317 15.5967 8.39024 15.5707 8.50732L14.0488 8.03902V7.80488C14.0488 6.06179 13.4439 4.58537 12.2341 3.37561C11.0244 2.16585 9.54797 1.56098 7.80488 1.56098C6.06179 1.56098 4.58537 2.16585 3.37561 3.37561C2.16585 4.58537 1.56098 6.06179 1.56098 7.80488C1.56098 9.54797 2.16585 11.0244 3.37561 12.2341C4.58537 13.4439 6.06179 14.0488 7.80488 14.0488H8.03902L8.50732 15.5707ZM14.4585 16L11.122 12.6634L10.1463 15.6098L7.80488 7.80488L15.6098 10.1463L12.6634 11.122L16 14.4585L14.4585 16Z" fill="#E8EAED"/>
</svg>
