<svg width="14" height="14" viewBox="0 0 14 14" fill="none" xmlns="http://www.w3.org/2000/svg">
<path fill-rule="evenodd" clip-rule="evenodd" d="M6.40211 7.30386C6.40561 8.70309 6.40982 11.0804 6.41333 12.9281C8.94316 13.2702 11.473 13.6229 13.9986 14C13.9986 11.7941 14.0014 9.59787 13.9986 7.49902C11.4667 7.49902 8.93544 7.30386 6.40211 7.30386ZM0 7.30454V12.0552C1.90807 12.3126 3.81614 12.5587 5.7207 12.8399C5.72421 11.0021 5.7193 9.16362 5.7193 7.32573C3.81263 7.32923 1.90667 7.29825 0 7.30454ZM0 1.99028V6.72759C1.90807 6.73249 3.81614 6.70361 5.72421 6.70571C5.72281 4.87202 5.72281 3.04058 5.7207 1.20688C3.81123 1.44545 1.90175 1.69784 0 1.99028ZM14 6.63018C11.4716 6.63997 8.94316 6.67853 6.41333 6.68623C6.41193 4.82245 6.41193 2.96091 6.41333 1.09854C8.93825 0.713045 11.4688 0.350504 13.9986 0C14 2.21078 13.9986 4.41939 14 6.63018Z" fill="white"/>
</svg>
